HIERARCHY
ROOT Hips
{
	OFFSET 0.00000 0.00000 0.00000
	CHANNELS 6 Xposition Yposition Zposition Zrotation Yrotation Xrotation 
	JOINT LHipJoint
	{
		OFFSET 0 0 0
		CHANNELS 3 Zrotation Yrotation Xrotation
		JOINT LeftUpLeg
		{
			OFFSET 1.53927 -1.56553 0.51726
			CHANNELS 3 Zrotation Yrotation Xrotation
			JOINT LeftLeg
			{
				OFFSET 2.38199 -6.54447 0.00000
				CHANNELS 3 Zrotation Yrotation Xrotation
				JOINT LeftFoot
				{
					OFFSET 2.35499 -6.47028 0.00000
					CHANNELS 3 Zrotation Yrotation Xrotation
					JOINT LeftToeBase
					{
						OFFSET 0.13641 -0.37478 1.84251
						CHANNELS 3 Zrotation Yrotation Xrotation
						End Site
						{
							OFFSET 0.00000 -0.00000 0.95212
						}
					}
				}
			}
		}
	}
	JOINT RHipJoint
	{
		OFFSET 0 0 0
		CHANNELS 3 Zrotation Yrotation Xrotation
		JOINT RightUpLeg
		{
			OFFSET -1.43919 -1.56553 0.51726
			CHANNELS 3 Zrotation Yrotation Xrotation
			JOINT RightLeg
			{
				OFFSET -2.34860 -6.45274 0.00000
				CHANNELS 3 Zrotation Yrotation Xrotation
				JOINT RightFoot
				{
					OFFSET -2.25563 -6.19730 0.00000
					CHANNELS 3 Zrotation Yrotation Xrotation
					JOINT RightToeBase
					{
						OFFSET -0.19755 -0.54277 1.84912
						CHANNELS 3 Zrotation Yrotation Xrotation
						End Site
						{
							OFFSET -0.00000 -0.00000 0.97032
						}
					}
				}
			}
		}
	}
	JOINT LowerBack
	{
		OFFSET 0 0 0
		CHANNELS 3 Zrotation Yrotation Xrotation
		JOINT Spine
		{
			OFFSET -0.06402 1.88434 -0.00445
			CHANNELS 3 Zrotation Yrotation Xrotation
			JOINT Spine1
			{
				OFFSET 0.00756 1.88511 0.04237
				CHANNELS 3 Zrotation Yrotation Xrotation
				JOINT Neck
				{
					OFFSET 0 0 0
					CHANNELS 3 Zrotation Yrotation Xrotation
					JOINT Neck1
					{
						OFFSET -0.06230 1.34710 0.03308
						CHANNELS 3 Zrotation Yrotation Xrotation
						JOINT Head
						{
							OFFSET -0.02442 1.34501 -0.13654
							CHANNELS 3 Zrotation Yrotation Xrotation
							End Site
							{
								OFFSET -0.00508 1.35584 -0.05075
							}
						}
					}
				}
				JOINT LeftShoulder
				{
					OFFSET 0 0 0
					CHANNELS 3 Zrotation Yrotation Xrotation
					JOINT LeftArm
					{
						OFFSET 2.76911 0.54460 0.39412
						CHANNELS 3 Zrotation Yrotation Xrotation
						JOINT LeftForeArm
						{
							OFFSET 4.40919 -0.00000 -0.00000
							CHANNELS 3 Zrotation Yrotation Xrotation
							JOINT LeftHand
							{
								OFFSET 3.03857 -0.00000 -0.00000
								CHANNELS 3 Zrotation Yrotation Xrotation
								JOINT LeftFingerBase
								{
									OFFSET 0 0 0
									CHANNELS 3 Zrotation Yrotation Xrotation
									JOINT LeftHandIndex1
									{
										OFFSET 0.52321 -0.00000 -0.00000
										CHANNELS 3 Zrotation Yrotation Xrotation
										End Site
										{
											OFFSET 0.42182 -0.00000 -0.00000
										}
									}
								}
								JOINT LThumb
								{
									OFFSET 0 0 0
									CHANNELS 3 Zrotation Yrotation Xrotation
									End Site
									{
										OFFSET 0.42826 -0.00000 0.42826
									}
								}
							}
						}
					}
				}
				JOINT RightShoulder
				{
					OFFSET 0 0 0
					CHANNELS 3 Zrotation Yrotation Xrotation
					JOINT RightArm
					{
						OFFSET -2.99050 0.75949 0.48975
						CHANNELS 3 Zrotation Yrotation Xrotation
						JOINT RightForeArm
						{
							OFFSET -4.61969 -0.00000 -0.00000
							CHANNELS 3 Zrotation Yrotation Xrotation
							JOINT RightHand
							{
								OFFSET -3.09382 -0.00000 -0.00000
								CHANNELS 3 Zrotation Yrotation Xrotation
								JOINT RightFingerBase
								{
									OFFSET 0 0 0
									CHANNELS 3 Zrotation Yrotation Xrotation
									JOINT RightHandIndex1
									{
										OFFSET -0.50090 -0.00000 -0.00000
										CHANNELS 3 Zrotation Yrotation Xrotation
										End Site
										{
											OFFSET -0.40384 -0.00000 -0.00000
										}
									}
								}
								JOINT RThumb
								{
									OFFSET 0 0 0
									CHANNELS 3 Zrotation Yrotation Xrotation
									End Site
									{
										OFFSET -0.41000 -0.00000 0.41000
									}
								}
							}
						}
					}
				}
			}
		}
	}
}
MOTION
Frames: 13
Frame Time: .0083333
0.1689 16.0286 -0.9159 0 0 0 0 0 0 -21 0 0 0 0 0 0 0 0 0 0 0 0 0 0 21 0 0 0 0 0 0 0 0 0 0 0 0 0 0 0 0 0 0 0 0 0 0 -16 0 0 21 0 0 11 0 0 0 -8 0 0 0 0 0 0 0 0 0 0 0 0 0 0 0 0 0 0 0 0 8 0 0 0 0 0 0 0 0 0 0 0 0 0 0 0 0 0
0.1689 16.0286 -0.9159 175.8140 -85.9156 -171.9760 0.0000 0.0000 0.0000 -18.6696 -18.1702 -2.3200 2.2255 9.3208 26.8040 -0.1669 15.2509 -19.8158 0.0616 -1.6010 -4.4041 0.0000 0.0000 0.0000 21.1346 18.8826 -3.9023 -1.8847 -8.6217 24.6190 -1.2272 -3.7736 -22.5950 -0.9705 -6.2718 17.5752 -3.3606 -0.4005 -1.5063 0.6614 -0.6323 -4.5346 2.5792 -0.2212 -3.7894 -0.4098 -1.4402 11.0691 -4.0250 -2.2766 -3.0447 -1.1058 -0.9864 -2.9776 0.0000 0.0000 0.0000 -95.0031 14.4164 4.1610 17.5768 -27.6119 -4.3513 -0.0000 -0.0000 19.3617 14.3579 -11.3173 -2.8757 -7.1250 0.0000 -0.0000 -8.9559 18.3881 5.7440 0.0000 0.0000 0.0000 88.3596 -14.2121 22.9648 -15.7421 25.1697 -3.5356 0.0000 0.0000 8.7909 -16.4492 -46.3745 12.0638 7.1250 -0.0000 -0.0000 41.3481 -74.1711 -29.6966
0.1702 16.0271 -0.9154 175.8990 -85.9300 -172.0900 0.0000 0.0000 0.0000 -18.6681 -18.1596 -2.3117 2.2305 9.3306 26.8352 -0.1498 15.1667 -19.8850 0.0528 -1.4826 -4.0777 0.0000 0.0000 0.0000 21.1651 18.9058 -3.8572 -1.8842 -8.6205 24.6152 -1.2246 -3.8499 -22.6135 -0.9756 -6.2880 17.6223 -3.3452 -0.3872 -1.3919 0.6448 -0.6194 -4.5614 2.5546 -0.2136 -3.8833 -0.3238 -1.3818 11.0729 -4.0230 -2.1844 -2.9822 -1.1257 -0.9430 -2.9563 -0.0000 -0.0000 0.0000 -94.9411 14.3809 4.1674 17.5142 -27.5306 -4.3223 -0.0000 -0.0000 19.3822 14.5472 -11.4770 -2.9557 -7.1250 0.0000 -0.0000 -8.8208 18.2137 5.6897 -0.0000 -0.0000 0.0000 88.4212 -14.1069 22.8573 -15.5921 24.9645 -3.4720 0.0000 0.0000 8.6945 -16.5725 -45.9786 12.0787 7.1250 -0.0000 -0.0000 40.1536 -73.9497 -28.5958
0.1677 16.0258 -0.9145 175.4860 -85.9427 -171.6970 0.0000 0.0000 0.0000 -18.6949 -18.0949 -2.3439 2.2358 9.3409 26.8676 -0.2197 15.4614 -19.5225 0.1091 -2.1297 -5.8642 0.0000 0.0000 0.0000 21.1438 18.8547 -3.7913 -1.8765 -8.6040 24.5643 -1.2251 -3.8380 -22.6117 -0.9531 -6.2169 17.4151 -3.3694 -0.3814 -1.3111 0.6412 -0.6157 -4.5896 2.5655 -0.2093 -3.9587 -0.2122 -1.3612 10.9503 -4.1327 -2.1409 -2.7888 -1.1837 -0.9240 -2.8696 -0.0000 -0.0000 0.0000 -94.9446 14.4005 4.2236 17.4650 -27.4667 -4.2996 -0.0000 -0.0000 19.2339 14.7763 -11.6998 -3.0617 -7.1250 0.0000 -0.0000 -8.6578 17.9719 5.6288 -0.0000 -0.0000 0.0000 88.3912 -14.0595 22.8284 -15.4984 24.8359 -3.4326 0.0000 0.0000 8.7061 -16.6842 -45.3604 12.0385 7.1250 -0.0000 -0.0000 38.4368 -73.5614 -26.9838
0.1654 16.0265 -0.9134 175.3290 -85.9612 -171.5430 0.0000 0.0000 0.0000 -18.7058 -18.1015 -2.3804 2.2461 9.3608 26.9307 -0.2817 15.6969 -19.1505 0.1927 -2.8268 -7.7969 0.0000 0.0000 0.0000 21.1340 18.8446 -3.7264 -1.8642 -8.5773 24.4819 -1.2266 -3.8133 -22.6109 -0.9441 -6.1883 17.3317 -3.3683 -0.3675 -1.3939 0.6629 -0.5927 -4.5608 2.5858 -0.1990 -3.8832 -0.2513 -1.3233 10.9616 -4.1687 -2.0977 -2.7435 -1.1909 -0.9018 -2.8554 -0.0000 -0.0000 0.0000 -95.0280 14.4202 4.3137 17.5108 -27.5262 -4.3208 -0.0000 -0.0000 19.0337 14.8724 -11.7788 -3.1030 -7.1250 0.0000 -0.0000 -8.5899 17.8850 5.6002 -0.0000 -0.0000 0.0000 88.2879 -13.9813 22.9569 -15.4467 24.7647 -3.4109 0.0000 0.0000 8.5730 -17.1325 -45.3647 12.3723 7.1250 -0.0000 -0.0000 37.9708 -73.7291 -26.7620
0.1658 16.0282 -0.9123 175.8180 -85.9848 -172.0230 0.0000 0.0000 0.0000 -18.6764 -18.2197 -2.3925 2.2564 9.3810 26.9944 -0.2834 15.6851 -19.1093 0.2160 -2.9919 -8.2562 0.0000 0.0000 0.0000 21.1736 18.8033 -3.7000 -1.8506 -8.5476 24.3902 -1.2136 -3.8813 -22.5385 -0.9062 -6.0665 16.9774 -3.3183 -0.3549 -1.4644 0.6939 -0.5709 -4.5333 2.5885 -0.1907 -3.8160 -0.3223 -1.2778 10.9761 -4.1701 -2.0470 -2.7142 -1.1816 -0.8765 -2.8459 -0.0000 -0.0000 0.0000 -95.0941 14.3346 4.2601 17.5240 -27.5434 -4.3269 -0.0000 -0.0000 19.0939 14.8218 -11.7151 -3.0755 -7.1250 0.0000 -0.0000 -8.6259 17.9534 5.6111 -0.0000 -0.0000 0.0000 88.1924 -13.6648 23.0127 -15.1524 24.3579 -3.2885 0.0000 0.0000 8.5207 -17.2402 -45.6714 12.5159 7.1250 -0.0000 -0.0000 38.6465 -73.9851 -27.4719
0.1656 16.0330 -0.9130 176.2270 -86.0025 -172.4080 0.0000 0.0000 0.0000 -18.6334 -18.2503 -2.4641 2.2652 9.3980 27.0484 -0.2864 15.6875 -19.0755 0.2469 -3.1975 -8.8291 0.0000 0.0000 0.0000 21.2194 18.8131 -3.6680 -1.8398 -8.5242 24.3179 -1.2033 -3.9847 -22.5079 -0.8789 -5.9766 16.7165 -3.3005 -0.3445 -1.4627 0.7141 -0.5574 -4.5556 2.5993 -0.1837 -3.8410 -0.3538 -1.2494 10.9057 -4.1290 -2.0063 -2.6109 -1.1645 -0.8601 -2.7951 0.0000 -0.0000 0.0000 -95.0939 14.2633 4.1781 17.4447 -27.4403 -4.2903 -0.0000 -0.0000 19.2530 14.9995 -11.8990 -3.1621 -7.1250 0.0000 -0.0000 -8.5000 17.7540 5.5651 0.0000 -0.0000 0.0000 88.1549 -13.4704 22.9682 -14.9392 24.0614 -3.2011 0.0000 0.0000 8.5601 -17.1652 -45.9303 12.5130 7.1250 -0.0000 -0.0000 39.4096 -74.1371 -28.1741
0.1647 16.0367 -0.9136 176.2400 -86.0249 -172.4060 0.0000 0.0000 0.0000 -18.6136 -18.1368 -2.5315 2.2712 9.4095 27.0850 -0.2942 15.7062 -19.0099 0.2813 -3.4111 -9.4254 0.0000 0.0000 0.0000 21.2373 18.9092 -3.6242 -1.8341 -8.5115 24.2788 -1.2000 -4.0801 -22.5324 -0.9029 -6.0556 16.9459 -3.2847 -0.3279 -1.4937 0.7044 -0.5339 -4.5433 2.5797 -0.1734 -3.8124 -0.3695 -1.2279 10.7352 -4.0722 -1.9682 -2.4818 -1.1450 -0.8471 -2.7168 -0.0000 0.0000 0.0000 -95.0562 14.1891 4.2074 17.3768 -27.3519 -4.2590 -0.0000 -0.0000 19.3576 15.3748 -12.1609 -3.3152 -7.1250 0.0000 -0.0000 -8.2369 17.4605 5.4427 -0.0000 0.0000 0.0000 88.1875 -13.4437 22.8781 -14.9528 24.0803 -3.2066 0.0000 0.0000 8.6155 -17.4803 -45.8909 12.7413 7.1250 -0.0000 -0.0000 38.9738 -74.2275 -27.9106
0.1643 16.0353 -0.9130 175.4420 -86.0505 -171.5850 0.0000 0.0000 0.0000 -18.6653 -18.1130 -2.5547 2.2733 9.4135 27.0975 -0.3067 15.7766 -18.9711 0.2822 -3.4168 -9.4414 0.0000 0.0000 0.0000 21.1682 18.9089 -3.6482 -1.8335 -8.5104 24.2754 -1.1957 -4.1136 -22.5140 -0.9100 -6.0788 17.0133 -3.3018 -0.3095 -1.5813 0.6641 -0.5052 -4.4826 2.5459 -0.1614 -3.7017 -0.3529 -1.2240 10.5313 -4.0415 -1.9516 -2.4056 -1.1388 -0.8431 -2.6519 -0.0000 -0.0000 0.0000 -94.9725 14.0144 4.3213 17.3166 -27.2733 -4.2314 -0.0000 -0.0000 19.4038 15.3776 -12.1099 -3.3021 -7.1250 0.0000 -0.0000 -8.2353 17.5125 5.4322 -0.0000 -0.0000 0.0000 88.2585 -13.3973 22.7872 -15.0386 24.1998 -3.2417 0.0000 0.0000 8.5664 -17.7891 -45.6641 12.9252 7.1250 -0.0000 -0.0000 38.0430 -74.1842 -27.1653
0.1651 16.0325 -0.9141 174.7010 -86.0490 -170.8270 0.0000 0.0000 0.0000 -18.7082 -18.1498 -2.5708 2.2716 9.4102 27.0870 -0.3083 15.8142 -19.0150 0.3063 -3.5583 -9.8373 0.0000 0.0000 0.0000 21.1080 18.8928 -3.6786 -1.8368 -8.5175 24.2972 -1.1981 -4.0868 -22.5200 -0.9163 -6.0991 17.0721 -3.3514 -0.3112 -1.6021 0.6478 -0.5072 -4.4724 2.5566 -0.1615 -3.6792 -0.3721 -1.1784 10.5183 -4.0177 -1.8917 -2.4134 -1.1310 -0.8139 -2.6502 -0.0000 0.0000 0.0000 -94.9180 13.9691 4.3548 17.3098 -27.2644 -4.2283 -0.0000 -0.0000 19.3345 15.0612 -11.9579 -3.1912 -7.1250 0.0000 -0.0000 -8.4565 17.6896 5.5480 -0.0000 0.0000 0.0000 88.2820 -13.4044 22.7877 -15.0991 24.2840 -3.2666 0.0000 0.0000 8.4836 -17.8097 -45.5588 12.9182 7.1250 -0.0000 -0.0000 37.7448 -74.1176 -26.8875
0.1680 16.0315 -0.9155 175.5690 -86.0930 -171.7020 0.0000 0.0000 0.0000 -18.6058 -18.1234 -2.6015 2.2680 9.4033 27.0654 -0.2910 15.7166 -19.0672 0.3207 -3.6400 -10.0660 0.0000 0.0000 0.0000 21.1908 18.9003 -3.6918 -1.8413 -8.5273 24.3275 -1.2043 -4.0889 -22.5729 -0.9335 -6.1544 17.2331 -3.2781 -0.3041 -1.4999 0.6640 -0.5015 -4.5147 2.5333 -0.1587 -3.7815 -0.2915 -1.1377 10.4837 -4.1749 -1.8319 -2.2499 -1.1992 -0.7839 -2.5909 0.0000 -0.0000 0.0000 -94.8815 14.0395 4.4450 17.3480 -27.3143 -4.2458 -0.0000 -0.0000 19.1496 14.8948 -11.8856 -3.1356 -7.1250 0.0000 -0.0000 -8.5731 17.7747 5.6101 0.0000 -0.0000 0.0000 88.2951 -13.4481 22.7393 -15.1178 24.3099 -3.2743 0.0000 0.0000 8.4214 -17.8903 -45.6084 12.9891 7.1250 -0.0000 -0.0000 37.7881 -74.1826 -26.9698
0.1712 16.0344 -0.9160 175.5750 -86.1866 -171.7310 0.0000 0.0000 0.0000 -18.5720 -18.1547 -2.5955 2.2628 9.3932 27.0333 -0.2635 15.5517 -19.1338 0.2748 -3.3720 -9.3162 0.0000 0.0000 0.0000 21.2228 18.8877 -3.6856 -1.8455 -8.5365 24.3558 -1.2005 -4.1983 -22.6010 -0.9121 -6.0855 17.0327 -3.2435 -0.2816 -1.3173 0.6446 -0.4793 -4.5695 2.4954 -0.1458 -3.9437 -0.1243 -1.1684 10.2981 -4.4026 -1.8525 -1.9425 -1.3006 -0.7970 -2.4593 0.0000 0.0000 0.0000 -94.8102 14.0334 4.5578 17.3197 -27.2772 -4.2328 -0.0000 -0.0000 19.1513 14.8002 -11.7716 -3.0854 -7.1250 0.0000 -0.0000 -8.6402 17.8972 5.6314 0.0000 0.0000 0.0000 88.3397 -13.5196 22.6463 -15.1541 24.3603 -3.2892 0.0000 0.0000 8.3675 -17.9754 -45.8695 13.1089 7.1250 -0.0000 -0.0000 38.3916 -74.3980 -27.5958
0.1742 16.0371 -0.9167 174.0960 -86.2268 -170.2490 0.0000 0.0000 0.0000 -18.6694 -18.2903 -2.5582 2.2570 9.3820 26.9978 -0.2266 15.3894 -19.3221 0.1949 -2.8432 -7.8426 0.0000 0.0000 0.0000 21.1323 18.9061 -3.6931 -1.8471 -8.5402 24.3671 -1.1890 -4.3247 -22.5745 -0.8895 -6.0117 16.8182 -3.3282 -0.2867 -1.2110 0.6166 -0.4924 -4.5997 2.5153 -0.1478 -4.0347 -0.0842 -1.1803 10.1593 -4.4750 -1.8610 -1.8167 -1.3302 -0.8034 -2.3933 -0.0000 0.0000 0.0000 -94.7919 13.9957 4.5199 17.2841 -27.2308 -4.2165 -0.0000 -0.0000 19.2999 14.8316 -11.5954 -3.0467 -7.1250 0.0000 -0.0000 -8.6205 18.0747 5.5842 -0.0000 0.0000 0.0000 88.3298 -13.5500 22.6663 -15.2029 24.4280 -3.3094 0.0000 0.0000 8.3133 -17.9092 -46.1731 13.1238 7.1250 -0.0000 -0.0000 39.2904 -74.5833 -28.4323
